<svg width="345" height="189" viewBox="0 0 345 189" fill="none" xmlns="http://www.w3.org/2000/svg">
<path d="M102.229 185C102.149 185 102.109 184.95 102.109 184.85L102.169 164.24C102.169 164.16 102.209 164.12 102.289 164.12H105.949C106.029 164.12 106.099 164.16 106.159 164.24L108.889 168.2L111.619 164.24C111.679 164.16 111.749 164.12 111.829 164.12H115.519C115.599 164.12 115.639 164.16 115.639 164.24L115.699 184.85C115.699 184.95 115.659 185 115.579 185H112.189C112.109 185 112.069 184.95 112.069 184.85L112.039 169.55L108.889 174.11L105.769 169.55L105.739 184.85C105.739 184.95 105.699 185 105.619 185H102.229ZM117.202 184.85L120.922 164.24C120.942 164.16 120.992 164.12 121.072 164.12H125.422C125.502 164.12 125.552 164.16 125.572 164.24L129.142 184.85C129.162 184.95 129.122 185 129.022 185H125.692C125.612 185 125.562 184.95 125.542 184.85L125.212 182.66H121.132L120.802 184.85C120.782 184.95 120.732 185 120.652 185H117.322C117.242 185 117.202 184.95 117.202 184.85ZM121.732 179.45H124.612L123.382 171.02L123.202 169.91L123.082 171.02L121.732 179.45ZM131.145 185C131.065 185 131.025 184.95 131.025 184.85L131.085 164.24C131.085 164.16 131.125 164.12 131.205 164.12H137.265C138.345 164.12 139.335 164.39 140.235 164.93C141.155 165.45 141.885 166.16 142.425 167.06C142.965 167.94 143.235 168.94 143.235 170.06C143.235 170.8 143.125 171.47 142.905 172.07C142.685 172.65 142.425 173.15 142.125 173.57C141.825 173.97 141.555 174.27 141.315 174.47C142.395 175.67 142.935 177.08 142.935 178.7L142.965 184.85C142.965 184.95 142.915 185 142.815 185H139.425C139.345 185 139.305 184.97 139.305 184.91V178.7C139.305 177.98 139.045 177.36 138.525 176.84C138.025 176.3 137.405 176.03 136.665 176.03H134.685L134.655 184.85C134.655 184.95 134.615 185 134.535 185H131.145ZM134.685 172.43H137.265C137.885 172.43 138.435 172.2 138.915 171.74C139.395 171.28 139.635 170.72 139.635 170.06C139.635 169.42 139.395 168.87 138.915 168.41C138.455 167.95 137.905 167.72 137.265 167.72H134.685V172.43ZM145.618 185C145.538 185 145.498 184.95 145.498 184.85L145.558 164.27C145.558 164.17 145.598 164.12 145.678 164.12H149.038C149.118 164.12 149.158 164.17 149.158 164.27V171.38L153.868 164.24C153.928 164.16 153.998 164.12 154.078 164.12H157.528C157.608 164.12 157.628 164.16 157.588 164.24L152.398 172.52L158.218 184.88C158.258 184.96 158.208 185 158.068 185H154.408C154.308 185 154.248 184.96 154.228 184.88L150.178 176.06L149.128 177.71V184.85C149.128 184.95 149.088 185 149.008 185H145.618ZM165.08 185.3C164.02 185.3 163.04 185.03 162.14 184.49C161.24 183.93 160.52 183.19 159.98 182.27C159.46 181.35 159.2 180.34 159.2 179.24L159.26 164.24C159.26 164.16 159.3 164.12 159.38 164.12H162.74C162.82 164.12 162.86 164.16 162.86 164.24V179.24C162.86 179.92 163.07 180.5 163.49 180.98C163.93 181.44 164.46 181.67 165.08 181.67C165.72 181.67 166.25 181.44 166.67 180.98C167.11 180.5 167.33 179.92 167.33 179.24V164.24C167.33 164.16 167.37 164.12 167.45 164.12H170.81C170.89 164.12 170.93 164.16 170.93 164.24L170.99 179.24C170.99 180.36 170.72 181.38 170.18 182.3C169.66 183.22 168.95 183.95 168.05 184.49C167.17 185.03 166.18 185.3 165.08 185.3ZM178.459 185.3C177.379 185.3 176.389 185.03 175.489 184.49C174.609 183.93 173.899 183.2 173.359 182.3C172.839 181.38 172.579 180.37 172.579 179.27V177.89C172.579 177.79 172.629 177.74 172.729 177.74H176.089C176.169 177.74 176.209 177.79 176.209 177.89V179.27C176.209 179.93 176.429 180.5 176.869 180.98C177.309 181.44 177.839 181.67 178.459 181.67C179.079 181.67 179.609 181.43 180.049 180.95C180.489 180.47 180.709 179.91 180.709 179.27C180.709 178.53 180.229 177.89 179.269 177.35C178.949 177.17 178.449 176.89 177.769 176.51C177.089 176.13 176.449 175.77 175.849 175.43C174.749 174.79 173.929 173.99 173.389 173.03C172.869 172.05 172.609 170.95 172.609 169.73C172.609 168.61 172.879 167.61 173.419 166.73C173.959 165.83 174.669 165.12 175.549 164.6C176.449 164.08 177.419 163.82 178.459 163.82C179.519 163.82 180.489 164.09 181.369 164.63C182.269 165.15 182.979 165.86 183.499 166.76C184.039 167.64 184.309 168.63 184.309 169.73V172.19C184.309 172.27 184.269 172.31 184.189 172.31H180.829C180.749 172.31 180.709 172.27 180.709 172.19L180.679 169.73C180.679 169.03 180.459 168.46 180.019 168.02C179.579 167.58 179.059 167.36 178.459 167.36C177.839 167.36 177.309 167.6 176.869 168.08C176.429 168.54 176.209 169.09 176.209 169.73C176.209 170.39 176.349 170.94 176.629 171.38C176.909 171.82 177.419 172.24 178.159 172.64C178.259 172.7 178.449 172.81 178.729 172.97C179.029 173.11 179.349 173.28 179.689 173.48C180.029 173.66 180.329 173.82 180.589 173.96C180.869 174.1 181.039 174.19 181.099 174.23C182.099 174.79 182.889 175.48 183.469 176.3C184.049 177.1 184.339 178.09 184.339 179.27C184.339 180.41 184.069 181.44 183.529 182.36C183.009 183.26 182.299 183.98 181.399 184.52C180.519 185.04 179.539 185.3 178.459 185.3ZM190.999 185C190.919 185 190.879 184.95 190.879 184.85L190.939 164.24C190.939 164.16 190.979 164.12 191.059 164.12H197.119C198.199 164.12 199.189 164.39 200.089 164.93C201.009 165.45 201.739 166.16 202.279 167.06C202.819 167.94 203.089 168.94 203.089 170.06C203.089 170.8 202.979 171.47 202.759 172.07C202.539 172.65 202.279 173.15 201.979 173.57C201.679 173.97 201.409 174.27 201.169 174.47C202.249 175.67 202.789 177.08 202.789 178.7L202.819 184.85C202.819 184.95 202.769 185 202.669 185H199.279C199.199 185 199.159 184.97 199.159 184.91V178.7C199.159 177.98 198.899 177.36 198.379 176.84C197.879 176.3 197.259 176.03 196.519 176.03H194.539L194.509 184.85C194.509 184.95 194.469 185 194.389 185H190.999ZM194.539 172.43H197.119C197.739 172.43 198.289 172.2 198.769 171.74C199.249 171.28 199.489 170.72 199.489 170.06C199.489 169.42 199.249 168.87 198.769 168.41C198.309 167.95 197.759 167.72 197.119 167.72H194.539V172.43ZM210.871 185.3C209.811 185.3 208.831 185.03 207.931 184.49C207.031 183.93 206.311 183.19 205.771 182.27C205.251 181.35 204.991 180.34 204.991 179.24L205.051 164.24C205.051 164.16 205.091 164.12 205.171 164.12H208.531C208.611 164.12 208.651 164.16 208.651 164.24V179.24C208.651 179.92 208.861 180.5 209.281 180.98C209.721 181.44 210.251 181.67 210.871 181.67C211.511 181.67 212.041 181.44 212.461 180.98C212.901 180.5 213.121 179.92 213.121 179.24V164.24C213.121 164.16 213.161 164.12 213.241 164.12H216.601C216.681 164.12 216.721 164.16 216.721 164.24L216.781 179.24C216.781 180.36 216.511 181.38 215.971 182.3C215.451 183.22 214.741 183.95 213.841 184.49C212.961 185.03 211.971 185.3 210.871 185.3ZM212.251 162.08C212.171 162.08 212.131 162.04 212.131 161.96V158.57C212.131 158.49 212.171 158.45 212.251 158.45H215.641C215.721 158.45 215.761 158.49 215.761 158.57V161.96C215.761 162.04 215.721 162.08 215.641 162.08H212.251ZM206.011 162.08C205.931 162.08 205.891 162.04 205.891 161.96V158.57C205.891 158.49 205.931 158.45 206.011 158.45H209.401C209.481 158.45 209.521 158.49 209.521 158.57V161.96C209.521 162.04 209.481 162.08 209.401 162.08H206.011ZM219.27 185C219.19 185 219.15 184.95 219.15 184.85L219.18 164.24C219.18 164.16 219.22 164.12 219.3 164.12H228.93C229.01 164.12 229.05 164.17 229.05 164.27V167.63C229.05 167.71 229.01 167.75 228.93 167.75H222.78V172.43H228.93C229.01 172.43 229.05 172.47 229.05 172.55L229.08 175.94C229.08 176.02 229.04 176.06 228.96 176.06H222.78V181.31H228.96C229.04 181.31 229.08 181.36 229.08 181.46V184.88C229.08 184.96 229.04 185 228.96 185H219.27ZM236.769 185.3C235.689 185.3 234.709 185.03 233.829 184.49C232.949 183.95 232.239 183.23 231.699 182.33C231.179 181.41 230.919 180.39 230.919 179.27V169.76C230.919 168.68 231.179 167.69 231.699 166.79C232.239 165.87 232.949 165.14 233.829 164.6C234.729 164.06 235.709 163.79 236.769 163.79C237.869 163.79 238.859 164.06 239.739 164.6C240.639 165.12 241.349 165.83 241.869 166.73C242.389 167.63 242.649 168.64 242.649 169.76V171.14C242.649 171.22 242.599 171.26 242.499 171.26H239.139C239.059 171.26 239.019 171.22 239.019 171.14V170C239.019 169.24 238.799 168.61 238.359 168.11C237.939 167.61 237.409 167.36 236.769 167.36C236.189 167.36 235.669 167.6 235.209 168.08C234.769 168.56 234.549 169.12 234.549 169.76V179.27C234.549 179.93 234.769 180.5 235.209 180.98C235.649 181.44 236.169 181.67 236.769 181.67C237.409 181.67 237.939 181.44 238.359 180.98C238.799 180.52 239.019 179.95 239.019 179.27V177.8H236.919C236.819 177.8 236.769 177.75 236.769 177.65V174.29C236.769 174.19 236.819 174.14 236.919 174.14H242.529C242.609 174.14 242.649 174.19 242.649 174.29V179.27C242.649 180.39 242.379 181.41 241.839 182.33C241.319 183.23 240.619 183.95 239.739 184.49C238.859 185.03 237.869 185.3 236.769 185.3ZM250.275 185.3C249.195 185.3 248.215 185.03 247.335 184.49C246.455 183.95 245.745 183.23 245.205 182.33C244.685 181.41 244.425 180.39 244.425 179.27V169.76C244.425 168.68 244.685 167.69 245.205 166.79C245.745 165.87 246.455 165.14 247.335 164.6C248.235 164.06 249.215 163.79 250.275 163.79C251.375 163.79 252.365 164.06 253.245 164.6C254.145 165.12 254.855 165.83 255.375 166.73C255.895 167.63 256.155 168.64 256.155 169.76V171.14C256.155 171.22 256.105 171.26 256.005 171.26H252.645C252.565 171.26 252.525 171.22 252.525 171.14V170C252.525 169.24 252.305 168.61 251.865 168.11C251.445 167.61 250.915 167.36 250.275 167.36C249.695 167.36 249.175 167.6 248.715 168.08C248.275 168.56 248.055 169.12 248.055 169.76V179.27C248.055 179.93 248.275 180.5 248.715 180.98C249.155 181.44 249.675 181.67 250.275 181.67C250.915 181.67 251.445 181.44 251.865 180.98C252.305 180.52 252.525 179.95 252.525 179.27V177.8H250.425C250.325 177.8 250.275 177.75 250.275 177.65V174.29C250.275 174.19 250.325 174.14 250.425 174.14H256.035C256.115 174.14 256.155 174.19 256.155 174.29V179.27C256.155 180.39 255.885 181.41 255.345 182.33C254.825 183.23 254.125 183.95 253.245 184.49C252.365 185.03 251.375 185.3 250.275 185.3Z" fill="#097609"/>
<path d="M146.144 105.88L149.12 89.392C149.136 89.328 149.176 89.296 149.24 89.296H152.72C152.784 89.296 152.824 89.328 152.84 89.392L155.696 105.88C155.712 105.96 155.68 106 155.6 106H152.936C152.872 106 152.832 105.96 152.816 105.88L152.552 104.128H149.288L149.024 105.88C149.008 105.96 148.968 106 148.904 106H146.24C146.176 106 146.144 105.96 146.144 105.88ZM149.768 101.56H152.072L151.088 94.816L150.944 93.928L150.848 94.816L149.768 101.56ZM161.314 106.24C160.466 106.24 159.682 106.024 158.962 105.592C158.242 105.144 157.666 104.552 157.234 103.816C156.818 103.08 156.61 102.272 156.61 101.392L156.658 89.392C156.658 89.328 156.69 89.296 156.754 89.296H159.442C159.506 89.296 159.538 89.328 159.538 89.392V101.392C159.538 101.936 159.706 102.4 160.042 102.784C160.394 103.152 160.818 103.336 161.314 103.336C161.826 103.336 162.25 103.152 162.586 102.784C162.938 102.4 163.114 101.936 163.114 101.392V89.392C163.114 89.328 163.146 89.296 163.21 89.296H165.898C165.962 89.296 165.994 89.328 165.994 89.392L166.042 101.392C166.042 102.288 165.826 103.104 165.394 103.84C164.978 104.576 164.41 105.16 163.69 105.592C162.986 106.024 162.194 106.24 161.314 106.24ZM170.337 106C170.273 106 170.241 105.96 170.241 105.88V92.2H167.121C167.041 92.2 167.001 92.16 167.001 92.08L167.025 89.392C167.025 89.328 167.057 89.296 167.121 89.296H176.241C176.321 89.296 176.361 89.328 176.361 89.392V92.08C176.361 92.16 176.329 92.2 176.265 92.2H173.121L173.145 105.88C173.145 105.96 173.113 106 173.049 106H170.337ZM181.752 106.24C180.888 106.24 180.096 106.024 179.376 105.592C178.672 105.144 178.104 104.56 177.672 103.84C177.24 103.104 177.024 102.296 177.024 101.416L177.048 93.808C177.048 92.928 177.256 92.128 177.672 91.408C178.104 90.688 178.68 90.112 179.4 89.68C180.12 89.248 180.904 89.032 181.752 89.032C182.616 89.032 183.4 89.248 184.104 89.68C184.808 90.112 185.368 90.688 185.784 91.408C186.216 92.128 186.432 92.928 186.432 93.808L186.456 101.416C186.456 102.296 186.24 103.104 185.808 103.84C185.392 104.56 184.824 105.144 184.104 105.592C183.4 106.024 182.616 106.24 181.752 106.24ZM181.752 103.336C182.232 103.336 182.648 103.144 183 102.76C183.368 102.36 183.552 101.912 183.552 101.416L183.528 93.808C183.528 93.28 183.36 92.832 183.024 92.464C182.688 92.096 182.264 91.912 181.752 91.912C181.256 91.912 180.832 92.096 180.48 92.464C180.128 92.816 179.952 93.264 179.952 93.808V101.416C179.952 101.944 180.128 102.4 180.48 102.784C180.832 103.152 181.256 103.336 181.752 103.336ZM188.472 99.064C188.392 99.064 188.352 99.032 188.352 98.968V96.352C188.352 96.288 188.392 96.256 188.472 96.256H193.104C193.184 96.256 193.224 96.288 193.224 96.352V98.968C193.224 99.032 193.184 99.064 193.104 99.064H188.472ZM203.524 106.24C202.676 106.24 201.892 106.024 201.172 105.592C200.452 105.144 199.876 104.552 199.444 103.816C199.028 103.08 198.82 102.272 198.82 101.392L198.868 89.392C198.868 89.328 198.9 89.296 198.964 89.296H201.652C201.716 89.296 201.748 89.328 201.748 89.392V101.392C201.748 101.936 201.916 102.4 202.252 102.784C202.604 103.152 203.028 103.336 203.524 103.336C204.036 103.336 204.46 103.152 204.796 102.784C205.148 102.4 205.324 101.936 205.324 101.392V89.392C205.324 89.328 205.356 89.296 205.42 89.296H208.108C208.172 89.296 208.204 89.328 208.204 89.392L208.252 101.392C208.252 102.288 208.036 103.104 207.604 103.84C207.188 104.576 206.62 105.16 205.9 105.592C205.196 106.024 204.404 106.24 203.524 106.24ZM210.364 106C210.236 106 210.172 105.944 210.172 105.832L210.148 89.488C210.148 89.36 210.212 89.296 210.34 89.296H212.5L216.556 98.752L216.436 89.488C216.436 89.36 216.508 89.296 216.652 89.296H219.028C219.124 89.296 219.172 89.36 219.172 89.488L219.196 105.856C219.196 105.952 219.156 106 219.076 106H216.964L212.812 97.168L212.98 105.808C212.98 105.936 212.908 106 212.764 106H210.364ZM221.4 106C221.32 106 221.28 105.96 221.28 105.88L221.328 89.392C221.328 89.328 221.36 89.296 221.424 89.296L225.912 89.272C226.792 89.256 227.592 89.464 228.312 89.896C229.048 90.328 229.632 90.912 230.064 91.648C230.496 92.368 230.712 93.168 230.712 94.048V100.936C230.712 101.864 230.488 102.712 230.04 103.48C229.592 104.232 228.992 104.832 228.24 105.28C227.488 105.728 226.64 105.96 225.696 105.976L221.4 106ZM224.208 103.048H225.696C226.288 103.048 226.784 102.84 227.184 102.424C227.6 102.008 227.808 101.512 227.808 100.936V94.024C227.808 93.512 227.616 93.072 227.232 92.704C226.864 92.32 226.424 92.136 225.912 92.152L224.232 92.176L224.208 103.048ZM147.056 136C146.992 136 146.96 135.96 146.96 135.88L147.008 119.392C147.008 119.328 147.04 119.296 147.104 119.296H150.032C150.096 119.296 150.152 119.328 150.2 119.392L152.384 122.56L154.568 119.392C154.616 119.328 154.672 119.296 154.736 119.296H157.688C157.752 119.296 157.784 119.328 157.784 119.392L157.832 135.88C157.832 135.96 157.8 136 157.736 136H155.024C154.96 136 154.928 135.96 154.928 135.88L154.904 123.64L152.384 127.288L149.888 123.64L149.864 135.88C149.864 135.96 149.832 136 149.768 136H147.056ZM164.291 136.24C163.427 136.24 162.635 136.024 161.915 135.592C161.211 135.144 160.643 134.56 160.211 133.84C159.779 133.104 159.563 132.296 159.563 131.416L159.587 123.808C159.587 122.928 159.795 122.128 160.211 121.408C160.643 120.688 161.219 120.112 161.939 119.68C162.659 119.248 163.443 119.032 164.291 119.032C165.155 119.032 165.939 119.248 166.643 119.68C167.347 120.112 167.907 120.688 168.323 121.408C168.755 122.128 168.971 122.928 168.971 123.808L168.995 131.416C168.995 132.296 168.779 133.104 168.347 133.84C167.931 134.56 167.363 135.144 166.643 135.592C165.939 136.024 165.155 136.24 164.291 136.24ZM164.291 133.336C164.771 133.336 165.187 133.144 165.539 132.76C165.907 132.36 166.091 131.912 166.091 131.416L166.067 123.808C166.067 123.28 165.899 122.832 165.563 122.464C165.227 122.096 164.803 121.912 164.291 121.912C163.795 121.912 163.371 122.096 163.019 122.464C162.667 122.816 162.491 123.264 162.491 123.808V131.416C162.491 131.944 162.667 132.4 163.019 132.784C163.371 133.152 163.795 133.336 164.291 133.336ZM172.915 136C172.851 136 172.819 135.96 172.819 135.88V122.2H169.699C169.619 122.2 169.579 122.16 169.579 122.08L169.603 119.392C169.603 119.328 169.635 119.296 169.699 119.296H178.819C178.899 119.296 178.939 119.328 178.939 119.392V122.08C178.939 122.16 178.907 122.2 178.843 122.2H175.699L175.723 135.88C175.723 135.96 175.691 136 175.627 136H172.915ZM184.33 136.24C183.466 136.24 182.674 136.024 181.954 135.592C181.25 135.144 180.682 134.56 180.25 133.84C179.818 133.104 179.602 132.296 179.602 131.416L179.626 123.808C179.626 122.928 179.834 122.128 180.25 121.408C180.682 120.688 181.258 120.112 181.978 119.68C182.698 119.248 183.482 119.032 184.33 119.032C185.194 119.032 185.978 119.248 186.682 119.68C187.386 120.112 187.946 120.688 188.362 121.408C188.794 122.128 189.01 122.928 189.01 123.808L189.034 131.416C189.034 132.296 188.818 133.104 188.386 133.84C187.97 134.56 187.402 135.144 186.682 135.592C185.978 136.024 185.194 136.24 184.33 136.24ZM184.33 133.336C184.81 133.336 185.226 133.144 185.578 132.76C185.946 132.36 186.13 131.912 186.13 131.416L186.106 123.808C186.106 123.28 185.938 122.832 185.602 122.464C185.266 122.096 184.842 121.912 184.33 121.912C183.834 121.912 183.41 122.096 183.058 122.464C182.706 122.816 182.53 123.264 182.53 123.808V131.416C182.53 131.944 182.706 132.4 183.058 132.784C183.41 133.152 183.834 133.336 184.33 133.336ZM190.954 136C190.89 136 190.858 135.96 190.858 135.88L190.906 119.392C190.906 119.328 190.938 119.296 191.002 119.296H195.85C196.714 119.296 197.506 119.512 198.226 119.944C198.962 120.36 199.546 120.928 199.978 121.648C200.41 122.352 200.626 123.152 200.626 124.048C200.626 124.64 200.538 125.176 200.362 125.656C200.186 126.12 199.978 126.52 199.738 126.856C199.498 127.176 199.282 127.416 199.09 127.576C199.954 128.536 200.386 129.664 200.386 130.96L200.41 135.88C200.41 135.96 200.37 136 200.29 136H197.578C197.514 136 197.482 135.976 197.482 135.928V130.96C197.482 130.384 197.274 129.888 196.858 129.472C196.458 129.04 195.962 128.824 195.37 128.824H193.786L193.762 135.88C193.762 135.96 193.73 136 193.666 136H190.954ZM193.786 125.944H195.85C196.346 125.944 196.786 125.76 197.17 125.392C197.554 125.024 197.746 124.576 197.746 124.048C197.746 123.536 197.554 123.096 197.17 122.728C196.802 122.36 196.362 122.176 195.85 122.176H193.786V125.944ZM202.533 136C202.469 136 202.437 135.96 202.437 135.88L202.485 119.392C202.485 119.328 202.517 119.296 202.581 119.296H207.429C208.293 119.296 209.085 119.512 209.805 119.944C210.541 120.36 211.125 120.928 211.557 121.648C211.989 122.352 212.205 123.152 212.205 124.048C212.205 124.64 212.117 125.176 211.941 125.656C211.765 126.12 211.557 126.52 211.317 126.856C211.077 127.176 210.861 127.416 210.669 127.576C211.533 128.536 211.965 129.664 211.965 130.96L211.989 135.88C211.989 135.96 211.949 136 211.869 136H209.157C209.093 136 209.061 135.976 209.061 135.928V130.96C209.061 130.384 208.853 129.888 208.437 129.472C208.037 129.04 207.541 128.824 206.949 128.824H205.365L205.341 135.88C205.341 135.96 205.309 136 205.245 136H202.533ZM205.365 125.944H207.429C207.925 125.944 208.365 125.76 208.749 125.392C209.133 125.024 209.325 124.576 209.325 124.048C209.325 123.536 209.133 123.096 208.749 122.728C208.381 122.36 207.941 122.176 207.429 122.176H205.365V125.944ZM213.199 135.88L216.175 119.392C216.191 119.328 216.231 119.296 216.295 119.296H219.775C219.839 119.296 219.879 119.328 219.895 119.392L222.751 135.88C222.767 135.96 222.735 136 222.655 136H219.991C219.927 136 219.887 135.96 219.871 135.88L219.607 134.128H216.343L216.079 135.88C216.063 135.96 216.023 136 215.959 136H213.295C213.231 136 213.199 135.96 213.199 135.88ZM216.823 131.56H219.127L218.143 124.816L217.999 123.928L217.903 124.816L216.823 131.56ZM224.377 136C224.297 136 224.257 135.96 224.257 135.88L224.305 119.392C224.305 119.328 224.337 119.296 224.401 119.296L228.889 119.272C229.769 119.256 230.569 119.464 231.289 119.896C232.025 120.328 232.609 120.912 233.041 121.648C233.473 122.368 233.689 123.168 233.689 124.048V130.936C233.689 131.864 233.465 132.712 233.017 133.48C232.569 134.232 231.969 134.832 231.217 135.28C230.465 135.728 229.617 135.96 228.673 135.976L224.377 136ZM227.185 133.048H228.673C229.265 133.048 229.761 132.84 230.161 132.424C230.577 132.008 230.785 131.512 230.785 130.936V124.024C230.785 123.512 230.593 123.072 230.209 122.704C229.841 122.32 229.401 122.136 228.889 122.152L227.209 122.176L227.185 133.048ZM235.697 136C235.617 136 235.577 135.96 235.577 135.88L235.625 119.392C235.625 119.328 235.657 119.296 235.721 119.296H243.401C243.481 119.296 243.521 119.328 243.521 119.392V122.104C243.521 122.168 243.489 122.2 243.425 122.2H238.505V125.92H243.425C243.489 125.92 243.521 125.96 243.521 126.04L243.545 128.752C243.545 128.816 243.505 128.848 243.425 128.848H238.505V135.88C238.505 135.96 238.465 136 238.385 136H235.697ZM243.457 135.88L246.433 119.392C246.449 119.328 246.489 119.296 246.553 119.296H250.033C250.097 119.296 250.137 119.328 250.153 119.392L253.009 135.88C253.025 135.96 252.993 136 252.913 136H250.249C250.185 136 250.145 135.96 250.129 135.88L249.865 134.128H246.601L246.337 135.88C246.321 135.96 246.281 136 246.217 136H243.553C243.489 136 243.457 135.96 243.457 135.88ZM247.081 131.56H249.385L248.401 124.816L248.257 123.928L248.161 124.816L247.081 131.56ZM254.611 136C254.547 136 254.515 135.96 254.515 135.88L254.539 119.392C254.539 119.328 254.579 119.296 254.659 119.296H257.323C257.403 119.296 257.443 119.328 257.443 119.392L257.419 125.92H261.019V119.392C261.019 119.328 261.051 119.296 261.115 119.296H263.779C263.859 119.296 263.899 119.328 263.899 119.392L263.947 135.88C263.947 135.96 263.907 136 263.827 136H261.139C261.059 136 261.019 135.96 261.019 135.88V128.824H257.419V135.88C257.419 135.96 257.387 136 257.323 136H254.611ZM266.001 136C265.937 136 265.905 135.96 265.905 135.88L265.953 119.392C265.953 119.328 265.985 119.296 266.049 119.296H270.897C271.761 119.296 272.553 119.512 273.273 119.944C274.009 120.36 274.593 120.928 275.025 121.648C275.457 122.352 275.673 123.152 275.673 124.048C275.673 124.64 275.585 125.176 275.409 125.656C275.233 126.12 275.025 126.52 274.785 126.856C274.545 127.176 274.329 127.416 274.137 127.576C275.001 128.536 275.433 129.664 275.433 130.96L275.457 135.88C275.457 135.96 275.417 136 275.337 136H272.625C272.561 136 272.529 135.976 272.529 135.928V130.96C272.529 130.384 272.321 129.888 271.905 129.472C271.505 129.04 271.009 128.824 270.417 128.824H268.833L268.809 135.88C268.809 135.96 268.777 136 268.713 136H266.001ZM268.833 125.944H270.897C271.393 125.944 271.833 125.76 272.217 125.392C272.601 125.024 272.793 124.576 272.793 124.048C272.793 123.536 272.601 123.096 272.217 122.728C271.849 122.36 271.409 122.176 270.897 122.176H268.833V125.944ZM281.493 136.24C280.629 136.24 279.837 136.024 279.117 135.592C278.413 135.144 277.845 134.56 277.413 133.84C276.997 133.104 276.789 132.296 276.789 131.416V130.312C276.789 130.232 276.829 130.192 276.909 130.192H279.597C279.661 130.192 279.693 130.232 279.693 130.312V131.416C279.693 131.944 279.869 132.4 280.221 132.784C280.573 133.152 280.997 133.336 281.493 133.336C281.989 133.336 282.413 133.144 282.765 132.76C283.117 132.376 283.293 131.928 283.293 131.416C283.293 130.824 282.909 130.312 282.141 129.88C281.885 129.736 281.485 129.512 280.941 129.208C280.397 128.904 279.885 128.616 279.405 128.344C278.525 127.832 277.869 127.192 277.437 126.424C277.021 125.64 276.813 124.76 276.813 123.784C276.813 122.888 277.029 122.088 277.461 121.384C277.893 120.664 278.461 120.096 279.165 119.68C279.885 119.264 280.661 119.056 281.493 119.056C282.341 119.056 283.117 119.272 283.821 119.704C284.541 120.12 285.109 120.688 285.525 121.408C285.957 122.112 286.173 122.904 286.173 123.784V125.752C286.173 125.816 286.141 125.848 286.077 125.848H283.389C283.325 125.848 283.293 125.816 283.293 125.752L283.269 123.784C283.269 123.224 283.093 122.768 282.741 122.416C282.389 122.064 281.973 121.888 281.493 121.888C280.997 121.888 280.573 122.08 280.221 122.464C279.869 122.832 279.693 123.272 279.693 123.784C279.693 124.312 279.805 124.752 280.029 125.104C280.253 125.456 280.661 125.792 281.253 126.112C281.333 126.16 281.485 126.248 281.709 126.376C281.949 126.488 282.205 126.624 282.477 126.784C282.749 126.928 282.989 127.056 283.197 127.168C283.421 127.28 283.557 127.352 283.605 127.384C284.405 127.832 285.037 128.384 285.501 129.04C285.965 129.68 286.197 130.472 286.197 131.416C286.197 132.328 285.981 133.152 285.549 133.888C285.133 134.608 284.565 135.184 283.845 135.616C283.141 136.032 282.357 136.24 281.493 136.24ZM292.282 136.24C291.402 136.24 290.602 136.024 289.882 135.592C289.178 135.144 288.618 134.552 288.202 133.816C287.786 133.08 287.578 132.256 287.578 131.344L287.602 123.856C287.602 122.976 287.802 122.176 288.202 121.456C288.618 120.72 289.178 120.136 289.882 119.704C290.602 119.256 291.402 119.032 292.282 119.032C293.162 119.032 293.954 119.248 294.658 119.68C295.362 120.112 295.922 120.696 296.338 121.432C296.754 122.152 296.962 122.96 296.962 123.856V124.96C296.962 125.024 296.93 125.056 296.866 125.056H294.178C294.114 125.056 294.082 125.024 294.082 124.96V123.856C294.082 123.328 293.906 122.872 293.554 122.488C293.218 122.104 292.794 121.912 292.282 121.912C291.706 121.912 291.266 122.112 290.962 122.512C290.658 122.896 290.506 123.344 290.506 123.856V131.344C290.506 131.936 290.674 132.416 291.01 132.784C291.362 133.152 291.786 133.336 292.282 133.336C292.794 133.336 293.218 133.136 293.554 132.736C293.906 132.32 294.082 131.856 294.082 131.344V130.24C294.082 130.176 294.114 130.144 294.178 130.144H296.89C296.954 130.144 296.986 130.176 296.986 130.24V131.344C296.986 132.256 296.77 133.08 296.338 133.816C295.922 134.552 295.362 135.144 294.658 135.592C293.954 136.024 293.162 136.24 292.282 136.24ZM298.837 136C298.773 136 298.741 135.96 298.741 135.88L298.765 119.392C298.765 119.328 298.805 119.296 298.885 119.296H301.549C301.629 119.296 301.669 119.328 301.669 119.392L301.645 125.92H305.245V119.392C305.245 119.328 305.277 119.296 305.341 119.296H308.005C308.085 119.296 308.125 119.328 308.125 119.392L308.173 135.88C308.173 135.96 308.133 136 308.053 136H305.365C305.285 136 305.245 135.96 305.245 135.88V128.824H301.645V135.88C301.645 135.96 301.613 136 301.549 136H298.837ZM314.548 136.24C313.7 136.24 312.916 136.024 312.196 135.592C311.476 135.144 310.9 134.552 310.468 133.816C310.052 133.08 309.844 132.272 309.844 131.392L309.892 119.392C309.892 119.328 309.924 119.296 309.988 119.296H312.676C312.74 119.296 312.772 119.328 312.772 119.392V131.392C312.772 131.936 312.94 132.4 313.276 132.784C313.628 133.152 314.052 133.336 314.548 133.336C315.06 133.336 315.484 133.152 315.82 132.784C316.172 132.4 316.348 131.936 316.348 131.392V119.392C316.348 119.328 316.38 119.296 316.444 119.296H319.132C319.196 119.296 319.228 119.328 319.228 119.392L319.276 131.392C319.276 132.288 319.06 133.104 318.628 133.84C318.212 134.576 317.644 135.16 316.924 135.592C316.22 136.024 315.428 136.24 314.548 136.24ZM321.267 136C321.203 136 321.171 135.96 321.171 135.88L321.195 119.416C321.195 119.336 321.235 119.296 321.315 119.296H323.979C324.059 119.296 324.099 119.336 324.099 119.416L324.075 133.048H329.019C329.099 133.048 329.139 133.088 329.139 133.168V135.88C329.139 135.96 329.099 136 329.019 136H321.267ZM330.806 136C330.742 136 330.71 135.96 330.71 135.88L330.734 119.392C330.734 119.328 330.766 119.296 330.83 119.296H338.534C338.598 119.296 338.63 119.336 338.63 119.416V122.104C338.63 122.168 338.598 122.2 338.534 122.2H333.614V125.944H338.534C338.598 125.944 338.63 125.976 338.63 126.04L338.654 128.752C338.654 128.816 338.622 128.848 338.558 128.848H333.614V133.048H338.558C338.622 133.048 338.654 133.088 338.654 133.168V135.904C338.654 135.968 338.622 136 338.558 136H330.806Z" fill="#075807"/>
<path d="M148.09 76C147.908 76 147.818 75.8867 147.818 75.66L147.886 28.944C147.886 28.7627 147.976 28.672 148.158 28.672H169.986C170.167 28.672 170.258 28.7853 170.258 29.012V36.628C170.258 36.8093 170.167 36.9 169.986 36.9H156.046V47.508H169.986C170.167 47.508 170.258 47.5987 170.258 47.78L170.326 55.464C170.326 55.6453 170.235 55.736 170.054 55.736H156.046V67.636H170.054C170.235 67.636 170.326 67.7493 170.326 67.976V75.728C170.326 75.9093 170.235 76 170.054 76H148.09ZM183.172 76C182.991 76 182.9 75.8867 182.9 75.66V36.9H174.06C173.834 36.9 173.72 36.7867 173.72 36.56L173.788 28.944C173.788 28.7627 173.879 28.672 174.06 28.672H199.9C200.127 28.672 200.24 28.7627 200.24 28.944V36.56C200.24 36.7867 200.15 36.9 199.968 36.9H191.06L191.128 75.66C191.128 75.8867 191.038 76 190.856 76H183.172ZM203.599 44.652V40.436C204.732 40.436 205.684 40.0053 206.455 39.144C207.271 38.2827 207.679 37.2627 207.679 36.084H203.871C203.69 36.084 203.599 35.9933 203.599 35.812V28.196C203.599 28.0147 203.69 27.924 203.871 27.924H211.555C211.736 27.924 211.827 28.0147 211.827 28.196V36.084C211.827 37.6707 211.442 39.1213 210.671 40.436C209.9 41.7507 208.88 42.7933 207.611 43.564C206.387 44.2893 205.05 44.652 203.599 44.652ZM228.971 76.68C226.523 76.68 224.279 76.068 222.239 74.844C220.245 73.5747 218.635 71.92 217.411 69.88C216.233 67.7947 215.643 65.5053 215.643 63.012V59.884C215.643 59.6573 215.757 59.544 215.983 59.544H223.599C223.781 59.544 223.871 59.6573 223.871 59.884V63.012C223.871 64.508 224.37 65.8 225.367 66.888C226.365 67.9307 227.566 68.452 228.971 68.452C230.377 68.452 231.578 67.908 232.575 66.82C233.573 65.732 234.071 64.4627 234.071 63.012C234.071 61.3347 232.983 59.884 230.807 58.66C230.082 58.252 228.949 57.6173 227.407 56.756C225.866 55.8947 224.415 55.0787 223.055 54.308C220.562 52.8573 218.703 51.044 217.479 48.868C216.301 46.6467 215.711 44.1533 215.711 41.388C215.711 38.8493 216.323 36.5827 217.547 34.588C218.771 32.548 220.381 30.9387 222.375 29.76C224.415 28.5813 226.614 27.992 228.971 27.992C231.374 27.992 233.573 28.604 235.567 29.828C237.607 31.0067 239.217 32.616 240.395 34.656C241.619 36.6507 242.231 38.8947 242.231 41.388V46.964C242.231 47.1453 242.141 47.236 241.959 47.236H234.343C234.162 47.236 234.071 47.1453 234.071 46.964L234.003 41.388C234.003 39.8013 233.505 38.5093 232.507 37.512C231.51 36.5147 230.331 36.016 228.971 36.016C227.566 36.016 226.365 36.56 225.367 37.648C224.37 38.6907 223.871 39.9373 223.871 41.388C223.871 42.884 224.189 44.1307 224.823 45.128C225.458 46.1253 226.614 47.0773 228.291 47.984C228.518 48.12 228.949 48.3693 229.583 48.732C230.263 49.0493 230.989 49.4347 231.759 49.888C232.53 50.296 233.21 50.6587 233.799 50.976C234.434 51.2933 234.819 51.4973 234.955 51.588C237.222 52.8573 239.013 54.4213 240.327 56.28C241.642 58.0933 242.299 60.3373 242.299 63.012C242.299 65.596 241.687 67.9307 240.463 70.016C239.285 72.056 237.675 73.688 235.635 74.912C233.641 76.0907 231.419 76.68 228.971 76.68ZM279.66 76.68C277.212 76.68 274.991 76.068 272.996 74.844C271.001 73.62 269.392 71.988 268.168 69.948C266.989 67.8627 266.4 65.5507 266.4 63.012V41.456C266.4 39.008 266.989 36.764 268.168 34.724C269.392 32.6387 271.001 30.984 272.996 29.76C275.036 28.536 277.257 27.924 279.66 27.924C282.153 27.924 284.397 28.536 286.392 29.76C288.432 30.9387 290.041 32.548 291.22 34.588C292.399 36.628 292.988 38.9173 292.988 41.456V44.584C292.988 44.7653 292.875 44.856 292.648 44.856H285.032C284.851 44.856 284.76 44.7653 284.76 44.584V42C284.76 40.2773 284.261 38.8493 283.264 37.716C282.312 36.5827 281.111 36.016 279.66 36.016C278.345 36.016 277.167 36.56 276.124 37.648C275.127 38.736 274.628 40.0053 274.628 41.456V63.012C274.628 64.508 275.127 65.8 276.124 66.888C277.121 67.9307 278.3 68.452 279.66 68.452C281.111 68.452 282.312 67.9307 283.264 66.888C284.261 65.8453 284.76 64.5533 284.76 63.012V59.68H280C279.773 59.68 279.66 59.5667 279.66 59.34V51.724C279.66 51.4973 279.773 51.384 280 51.384H292.716C292.897 51.384 292.988 51.4973 292.988 51.724V63.012C292.988 65.5507 292.376 67.8627 291.152 69.948C289.973 71.988 288.387 73.62 286.392 74.844C284.397 76.068 282.153 76.68 279.66 76.68ZM310.409 76.68C307.961 76.68 305.717 76.068 303.677 74.844C301.683 73.5747 300.073 71.92 298.849 69.88C297.625 67.7947 297.013 65.5053 297.013 63.012L297.081 41.456C297.081 38.9627 297.671 36.696 298.849 34.656C300.073 32.616 301.705 30.984 303.745 29.76C305.785 28.536 308.007 27.924 310.409 27.924C312.857 27.924 315.079 28.536 317.073 29.76C319.068 30.984 320.655 32.616 321.833 34.656C323.057 36.696 323.669 38.9627 323.669 41.456L323.737 63.012C323.737 65.5053 323.125 67.7947 321.901 69.88C320.723 71.92 319.113 73.5747 317.073 74.844C315.079 76.068 312.857 76.68 310.409 76.68ZM310.409 68.452C311.769 68.452 312.948 67.908 313.945 66.82C314.988 65.6867 315.509 64.4173 315.509 63.012L315.441 41.456C315.441 39.96 314.965 38.6907 314.013 37.648C313.061 36.6053 311.86 36.084 310.409 36.084C309.004 36.084 307.803 36.6053 306.805 37.648C305.808 38.6453 305.309 39.9147 305.309 41.456V63.012C305.309 64.508 305.808 65.8 306.805 66.888C307.803 67.9307 309.004 68.452 310.409 68.452ZM330.675 63.488C330.494 63.488 330.381 63.3747 330.336 63.148L328.908 47.508V29.012C328.908 28.7853 328.998 28.672 329.18 28.672H336.796C337.022 28.672 337.136 28.7853 337.136 29.012L337.068 47.508L335.64 63.148C335.594 63.3747 335.481 63.488 335.3 63.488H330.675ZM329.18 76C328.998 76 328.908 75.8867 328.908 75.66V68.248C328.908 68.0667 328.998 67.976 329.18 67.976H336.796C336.977 67.976 337.068 68.0667 337.068 68.248V75.66C337.068 75.8867 336.977 76 336.796 76H329.18Z" fill="#063706"/>
<g filter="url(#filter0_d)">
<path d="M12 30.25C12 29.0074 13.0074 28 14.25 28H117.75C118.993 28 120 29.0074 120 30.25V133.75C120 134.993 118.993 136 117.75 136H14.25C13.0074 136 12 134.993 12 133.75V30.25Z" fill="#004589"/>
</g>
<path d="M48.9878 120.812C48.6893 120.812 48.54 120.626 48.54 120.253L48.652 43.4637C48.652 43.0906 48.8385 42.904 49.2117 42.904H61.6367C62.0099 42.904 62.1964 43.0906 62.1964 43.4637L62.0845 107.044H85.1436C85.5167 107.044 85.7033 107.231 85.7033 107.604V120.253C85.7033 120.626 85.5167 120.812 85.1436 120.812H48.9878Z" fill="white"/>
<defs>
<filter id="filter0_d" x="0" y="20" width="132" height="132" filterUnits="userSpaceOnUse" color-interpolation-filters="sRGB">
<feFlood flood-opacity="0" result="BackgroundImageFix"/>
<feColorMatrix in="SourceAlpha" type="matrix" values="0 0 0 0 0 0 0 0 0 0 0 0 0 0 0 0 0 0 127 0"/>
<feOffset dy="4"/>
<feGaussianBlur stdDeviation="6"/>
<feColorMatrix type="matrix" values="0 0 0 0 0 0 0 0 0 0 0 0 0 0 0 0 0 0 0.4 0"/>
<feBlend mode="normal" in2="BackgroundImageFix" result="effect1_dropShadow"/>
<feBlend mode="normal" in="SourceGraphic" in2="effect1_dropShadow" result="shape"/>
</filter>
</defs>
</svg>
