<svg width="2000" height="339" viewBox="0 0 2000 339" fill="none" xmlns="http://www.w3.org/2000/svg">
<path d="M901.25 301.071H899.125L884.678 283.163C883.881 282.176 882.871 281.38 881.722 280.832C880.573 280.285 879.314 280 878.04 280H849.63C846.154 280 843.029 282.098 841.738 285.298L835.375 301.369C831.715 302.309 829 305.577 829 309.5V324.25C829 325.414 829.951 326.357 831.125 326.357H837.5C837.5 333.34 843.208 339 850.25 339C857.292 339 863 333.34 863 326.357H880C880 333.34 885.708 339 892.75 339C899.792 339 905.5 333.34 905.5 326.357H911.875C913.049 326.357 914 325.414 914 324.25V313.714C914 306.732 908.292 301.071 901.25 301.071ZM850.25 332.679C846.734 332.679 843.875 329.843 843.875 326.357C843.875 322.871 846.734 320.036 850.25 320.036C853.766 320.036 856.625 322.871 856.625 326.357C856.625 329.843 853.766 332.679 850.25 332.679ZM859.812 301.071H844.53L849.63 288.429H859.812V301.071ZM866.188 301.071V288.429H878.04L888.24 301.071H866.188ZM892.75 332.679C889.234 332.679 886.375 329.843 886.375 326.357C886.375 322.871 889.234 320.036 892.75 320.036C896.266 320.036 899.125 322.871 899.125 326.357C899.125 329.843 896.266 332.679 892.75 332.679Z" fill="#063706"/>
<g clip-path="url(#clip0)">
<path d="M1040.59 279.244H1035.58V336.494C1035.58 337.878 1036.7 339 1038.09 339C1039.47 339 1040.59 337.878 1040.59 336.494V279.244Z" fill="#063706"/>
<path d="M1038 269.27C1039.29 269.27 1040.33 270.308 1040.33 271.582C1040.33 272.856 1039.29 273.893 1038 273.893C1036.71 273.893 1035.67 272.856 1035.67 271.582C1035.67 270.308 1036.71 269.27 1038 269.27ZM1038 260.025C1039.29 260.025 1040.33 261.062 1040.33 262.336C1040.33 263.61 1039.29 264.648 1038 264.648C1036.71 264.648 1035.67 263.61 1035.67 262.336C1035.67 261.062 1036.71 260.025 1038 260.025ZM1024 258.869H1028.67V256.133C1025.95 255.178 1024 252.638 1024 249.623H1028.67V247.311C1028.67 246.035 1029.71 245 1031 245H1045C1046.29 245 1047.33 246.035 1047.33 247.311V249.623H1052C1052 252.638 1050.05 255.178 1047.33 256.133V258.869H1052C1052 261.884 1050.05 264.424 1047.33 265.379V268.115H1052C1052 271.209 1049.94 273.799 1047.12 274.692C1046.21 278.857 1042.48 281.984 1038 281.984C1033.52 281.984 1029.79 278.857 1028.88 274.692C1026.06 273.799 1024 271.209 1024 268.115H1028.67V265.379C1025.95 264.424 1024 261.884 1024 258.869ZM1038 275.049C1039.93 275.049 1041.5 273.497 1041.5 271.582C1041.5 269.667 1039.93 268.115 1038 268.115C1036.07 268.115 1034.5 269.667 1034.5 271.582C1034.5 273.497 1036.07 275.049 1038 275.049ZM1038 265.803C1039.93 265.803 1041.5 264.251 1041.5 262.336C1041.5 260.421 1039.93 258.869 1038 258.869C1036.07 258.869 1034.5 260.421 1034.5 262.336C1034.5 264.251 1036.07 265.803 1038 265.803ZM1038 256.557C1039.93 256.557 1041.5 255.005 1041.5 253.09C1041.5 251.175 1039.93 249.623 1038 249.623C1036.07 249.623 1034.5 251.175 1034.5 253.09C1034.5 255.005 1036.07 256.557 1038 256.557Z" fill="#063706"/>
</g>
<g clip-path="url(#clip1)">
<path d="M720.238 327.213L701.396 305.562H708.949C714.321 305.562 717.237 299.46 713.817 295.427L693.905 272.125H703.305C707.774 272.125 710.208 267.423 707.355 264.33L679.05 233.713C676.952 231.435 673.049 231.435 670.951 233.713L642.667 264.33C639.813 267.423 642.247 272.125 646.716 272.125H656.116L636.183 295.427C632.763 299.46 635.68 305.562 641.051 305.562H648.605L629.763 327.213C625.776 331.79 628.965 339 634.945 339H715.034C721.035 339 724.203 331.769 720.238 327.213Z" fill="#097609"/>
</g>
<g clip-path="url(#clip2)">
<path d="M1028.34 331.125H1026.4C1023.82 331.125 1021.48 332.037 1019.81 333.501V328.5C1021.2 328.5 1022.54 327.947 1023.52 326.962C1024.51 325.978 1025.06 324.642 1025.06 323.25V319.312L1021.78 321.281L1018.55 318L1015.22 321.281L1011.94 319.312V323.25C1011.94 324.642 1012.49 325.978 1013.47 326.962C1014.46 327.947 1015.79 328.5 1017.19 328.5V333.501C1015.51 332.037 1013.18 331.125 1010.6 331.125H1008.66C1008.28 331.125 1007.96 331.442 1008 331.816C1008.41 335.842 1012.36 339 1017.18 339H1019.82C1024.63 339 1028.59 335.842 1029 331.816C1029.03 331.442 1028.71 331.125 1028.34 331.125Z" fill="#097609"/>
</g>
<g clip-path="url(#clip3)">
<path d="M1001.34 331.125H999.399C996.815 331.125 994.485 332.037 992.812 333.501V328.5C994.204 328.5 995.54 327.947 996.524 326.962C997.509 325.978 998.062 324.642 998.062 323.25V319.312L994.781 321.281L991.546 318L988.218 321.281L984.937 319.312V323.25C984.937 324.642 985.49 325.978 986.474 326.962C987.459 327.947 988.794 328.5 990.187 328.5V333.501C988.514 332.037 986.182 331.125 983.599 331.125H981.661C981.284 331.125 980.964 331.442 981.002 331.816C981.412 335.842 985.365 339 990.18 339H992.819C997.634 339 1001.59 335.842 1002 331.816C1002.03 331.442 1001.71 331.125 1001.34 331.125Z" fill="#097609"/>
</g>
<g clip-path="url(#clip4)">
<path d="M1547.34 331.125H1545.4C1542.82 331.125 1540.48 332.037 1538.81 333.501V328.5C1540.2 328.5 1541.54 327.947 1542.52 326.962C1543.51 325.978 1544.06 324.642 1544.06 323.25V319.312L1540.78 321.281L1537.55 318L1534.22 321.281L1530.94 319.312V323.25C1530.94 324.642 1531.49 325.978 1532.47 326.962C1533.46 327.947 1534.79 328.5 1536.19 328.5V333.501C1534.51 332.037 1532.18 331.125 1529.6 331.125H1527.66C1527.28 331.125 1526.96 331.442 1527 331.816C1527.41 335.842 1531.36 339 1536.18 339H1538.82C1543.63 339 1547.59 335.842 1548 331.816C1548.03 331.442 1547.71 331.125 1547.34 331.125Z" fill="#063706"/>
</g>
<g clip-path="url(#clip5)">
<path d="M1520.34 331.125H1518.4C1515.82 331.125 1513.48 332.037 1511.81 333.501V328.5C1513.2 328.5 1514.54 327.947 1515.52 326.962C1516.51 325.978 1517.06 324.642 1517.06 323.25V319.312L1513.78 321.281L1510.55 318L1507.22 321.281L1503.94 319.312V323.25C1503.94 324.642 1504.49 325.978 1505.47 326.962C1506.46 327.947 1507.79 328.5 1509.19 328.5V333.501C1507.51 332.037 1505.18 331.125 1502.6 331.125H1500.66C1500.28 331.125 1499.96 331.442 1500 331.816C1500.41 335.842 1504.36 339 1509.18 339H1511.82C1516.63 339 1520.59 335.842 1521 331.816C1521.03 331.442 1520.71 331.125 1520.34 331.125Z" fill="#063706"/>
</g>
<g clip-path="url(#clip6)">
<path d="M1601.34 331.125H1599.4C1596.82 331.125 1594.48 332.037 1592.81 333.501V328.5C1594.2 328.5 1595.54 327.947 1596.52 326.962C1597.51 325.978 1598.06 324.642 1598.06 323.25V319.312L1594.78 321.281L1591.55 318L1588.22 321.281L1584.94 319.312V323.25C1584.94 324.642 1585.49 325.978 1586.47 326.962C1587.46 327.947 1588.79 328.5 1590.19 328.5V333.501C1588.51 332.037 1586.18 331.125 1583.6 331.125H1581.66C1581.28 331.125 1580.96 331.442 1581 331.816C1581.41 335.842 1585.36 339 1590.18 339H1592.82C1597.63 339 1601.59 335.842 1602 331.816C1602.03 331.442 1601.71 331.125 1601.34 331.125Z" fill="#063706"/>
</g>
<g clip-path="url(#clip7)">
<path d="M1574.34 331.125H1572.4C1569.82 331.125 1567.48 332.037 1565.81 333.501V328.5C1567.2 328.5 1568.54 327.947 1569.52 326.962C1570.51 325.978 1571.06 324.642 1571.06 323.25V319.312L1567.78 321.281L1564.55 318L1561.22 321.281L1557.94 319.312V323.25C1557.94 324.642 1558.49 325.978 1559.47 326.962C1560.46 327.947 1561.79 328.5 1563.19 328.5V333.501C1561.51 332.037 1559.18 331.125 1556.6 331.125H1554.66C1554.28 331.125 1553.96 331.442 1554 331.816C1554.41 335.842 1558.36 339 1563.18 339H1565.82C1570.63 339 1574.59 335.842 1575 331.816C1575.03 331.442 1574.71 331.125 1574.34 331.125Z" fill="#063706"/>
</g>
<g clip-path="url(#clip8)">
<path d="M1068.34 331.125H1066.4C1063.82 331.125 1061.48 332.037 1059.81 333.501V328.5C1061.2 328.5 1062.54 327.947 1063.52 326.962C1064.51 325.978 1065.06 324.642 1065.06 323.25V319.312L1061.78 321.281L1058.55 318L1055.22 321.281L1051.94 319.312V323.25C1051.94 324.642 1052.49 325.978 1053.47 326.962C1054.46 327.947 1055.79 328.5 1057.19 328.5V333.501C1055.51 332.037 1053.18 331.125 1050.6 331.125H1048.66C1048.28 331.125 1047.96 331.442 1048 331.816C1048.41 335.842 1052.36 339 1057.18 339H1059.82C1064.63 339 1068.59 335.842 1069 331.816C1069.03 331.442 1068.71 331.125 1068.34 331.125Z" fill="#097609"/>
</g>
<g clip-path="url(#clip9)">
<path d="M1998.1 320.513L1890.1 152.512C1887.89 149.077 1884.08 147 1880 147C1875.92 147 1872.11 149.077 1869.91 152.512L1761.91 320.513C1760.74 322.325 1760.08 324.419 1760.01 326.572C1759.93 328.726 1760.43 330.861 1761.47 332.753C1762.5 334.644 1764.02 336.222 1765.88 337.321C1767.73 338.42 1769.85 339 1772 339H1988C1992.39 339 1996.43 336.604 1998.53 332.749C1999.57 330.858 2000.07 328.724 1999.99 326.57C1999.92 324.417 1999.26 322.325 1998.1 320.513ZM1880 181.193L1912.02 231H1880L1856 255L1841.73 240.728L1880 181.193Z" fill="#70AF1A"/>
</g>
<g clip-path="url(#clip10)">
<path d="M1821.24 327.213L1802.4 305.562H1809.95C1815.32 305.562 1818.24 299.46 1814.82 295.427L1794.91 272.125H1804.31C1808.77 272.125 1811.21 267.423 1808.35 264.33L1780.05 233.713C1777.95 231.435 1774.05 231.435 1771.95 233.713L1743.67 264.33C1740.81 267.423 1743.25 272.125 1747.72 272.125H1757.12L1737.18 295.427C1733.76 299.46 1736.68 305.562 1742.05 305.562H1749.6L1730.76 327.213C1726.78 331.79 1729.97 339 1735.95 339H1816.03C1822.04 339 1825.2 331.769 1821.24 327.213Z" fill="#097609"/>
</g>
<g clip-path="url(#clip11)">
<path d="M539.095 320.513L431.095 152.512C428.886 149.077 425.084 147 421 147C416.916 147 413.114 149.077 410.905 152.512L302.905 320.513C301.74 322.325 301.084 324.419 301.007 326.572C300.93 328.726 301.434 330.861 302.466 332.753C303.5 334.644 305.023 336.222 306.876 337.321C308.73 338.42 310.845 339 313 339H529C533.391 339 537.43 336.604 539.534 332.749C540.567 330.858 541.071 328.724 540.994 326.57C540.916 324.417 540.261 322.325 539.095 320.513ZM421 181.193L453.021 231H421L397 255L382.728 240.728L421 181.193Z" fill="#70AF1A"/>
</g>
<path d="M532.286 284.078H528.714V337.214C528.714 338.201 529.514 339 530.5 339C531.486 339 532.286 338.201 532.286 337.214V284.078Z" fill="#063706"/>
<path d="M530.5 260C537.404 260 543 265.672 543 272.668C543 279.665 537.404 285.337 530.5 285.337C523.596 285.337 518 279.665 518 272.668C518 265.672 523.596 260 530.5 260ZM521.629 275.12H539.371C539.817 275.12 540.177 274.755 540.177 274.303V271.034C540.177 270.582 539.817 270.216 539.371 270.216H521.629C521.183 270.216 520.823 270.582 520.823 271.034V274.303C520.823 274.755 521.183 275.12 521.629 275.12Z" fill="#063706"/>
<path d="M647.145 326.5H638.855L637.362 330.25H648.638L647.145 326.5ZM644.318 319.394C644.271 319.278 644.191 319.178 644.088 319.108C643.984 319.038 643.862 319 643.737 319H642.263C642.138 319 642.016 319.038 641.912 319.108C641.809 319.178 641.729 319.278 641.682 319.394L639.85 324H646.15L644.318 319.394ZM652.375 336.5H651.125L649.632 332.75H636.368L634.875 336.5H633.625C633.28 336.5 633 336.78 633 337.125V338.375C633 338.72 633.28 339 633.625 339H652.375C652.72 339 653 338.72 653 338.375V337.125C653 336.78 652.72 336.5 652.375 336.5Z" fill="#063706"/>
<path d="M621.438 326.5H613.562L612.144 330.25H622.856L621.438 326.5ZM618.752 319.394C618.708 319.278 618.632 319.178 618.533 319.108C618.435 319.038 618.319 319 618.2 319H616.8C616.681 319 616.565 319.038 616.467 319.108C616.368 319.178 616.292 319.278 616.248 319.394L614.507 324H620.493L618.752 319.394ZM626.406 336.5H625.219L623.801 332.75H611.199L609.781 336.5H608.594C608.266 336.5 608 336.78 608 337.125V338.375C608 338.72 608.266 339 608.594 339H626.406C626.734 339 627 338.72 627 338.375V337.125C627 336.78 626.734 336.5 626.406 336.5Z" fill="#063706"/>
<path d="M596.438 326.5H588.562L587.144 330.25H597.856L596.438 326.5ZM593.752 319.394C593.708 319.278 593.632 319.178 593.533 319.108C593.435 319.038 593.319 319 593.2 319H591.8C591.681 319 591.565 319.038 591.467 319.108C591.368 319.178 591.292 319.278 591.248 319.394L589.507 324H595.493L593.752 319.394ZM601.406 336.5H600.219L598.801 332.75H586.199L584.781 336.5H583.594C583.266 336.5 583 336.78 583 337.125V338.375C583 338.72 583.266 339 583.594 339H601.406C601.734 339 602 338.72 602 338.375V337.125C602 336.78 601.734 336.5 601.406 336.5Z" fill="#063706"/>
<path d="M1666.27 297.938H1668.55V288.812C1668.55 286.293 1670.59 284.25 1673.1 284.25H1683.56L1695.39 269.425C1696.24 268.356 1697.33 267.494 1698.56 266.901C1699.79 266.308 1701.13 266 1702.5 266H1718.6C1721.11 266 1723.15 268.043 1723.15 270.562V284.25H1748.17C1749.43 284.25 1750.45 285.271 1750.45 286.531V297.938H1752.72C1753.98 297.938 1755 298.958 1755 300.219V304.781C1755 306.042 1753.98 307.062 1752.72 307.062H1750.35C1746.19 301.552 1739.67 297.938 1732.25 297.938C1724.83 297.938 1718.31 301.552 1714.15 307.062H1704.85C1700.69 301.552 1694.17 297.938 1686.75 297.938C1679.33 297.938 1672.8 301.552 1668.65 307.062H1666.27C1665.02 307.062 1664 306.042 1664 304.781V300.219C1664 298.958 1665.02 297.938 1666.27 297.938ZM1714.05 284.25V275.125H1702.5L1695.22 284.25H1714.05ZM1670.82 316.188H1671.56C1671.88 315.142 1672.29 314.151 1672.79 313.209L1672.27 312.686C1671.38 311.795 1671.38 310.35 1672.27 309.459L1675.49 306.233C1676.38 305.342 1677.82 305.342 1678.71 306.233L1679.23 306.756C1680.18 306.244 1681.17 305.831 1682.2 305.523V304.781C1682.2 303.521 1683.22 302.5 1684.47 302.5H1689.02C1690.28 302.5 1691.3 303.521 1691.3 304.781V305.523C1692.34 305.836 1693.33 306.246 1694.27 306.756L1694.79 306.233C1695.68 305.342 1697.12 305.342 1698.01 306.233L1701.23 309.459C1702.12 310.35 1702.12 311.795 1701.23 312.686L1700.71 313.209C1701.22 314.157 1701.63 315.155 1701.94 316.188H1702.67C1703.93 316.188 1704.95 317.208 1704.95 318.469V323.031C1704.95 324.292 1703.93 325.312 1702.67 325.312H1701.94C1701.62 326.358 1701.21 327.349 1700.71 328.291L1701.23 328.814C1702.12 329.705 1702.12 331.15 1701.23 332.041L1698.01 335.267C1697.12 336.158 1695.68 336.158 1694.79 335.267L1694.27 334.744C1693.33 335.253 1692.34 335.664 1691.3 335.977V336.719C1691.3 337.979 1690.28 339 1689.02 339H1684.47C1683.22 339 1682.2 337.979 1682.2 336.719V335.977C1681.16 335.664 1680.17 335.254 1679.23 334.744L1678.71 335.267C1677.82 336.158 1676.38 336.158 1675.49 335.267L1672.27 332.041C1671.38 331.15 1671.38 329.705 1672.27 328.814L1672.79 328.291C1672.28 327.343 1671.87 326.345 1671.56 325.312H1670.82C1669.57 325.312 1668.55 324.292 1668.55 323.031V318.469C1668.55 317.208 1669.57 316.188 1670.82 316.188ZM1686.75 327.594C1690.52 327.594 1693.57 324.53 1693.57 320.75C1693.57 316.97 1690.52 313.906 1686.75 313.906C1682.98 313.906 1679.92 316.97 1679.92 320.75C1679.92 324.53 1682.98 327.594 1686.75 327.594ZM1716.32 316.188H1717.06C1717.38 315.142 1717.79 314.151 1718.29 313.209L1717.77 312.686C1716.88 311.795 1716.88 310.35 1717.77 309.459L1720.99 306.233C1721.88 305.342 1723.32 305.342 1724.21 306.233L1724.73 306.756C1725.68 306.244 1726.67 305.831 1727.7 305.523V304.781C1727.7 303.521 1728.72 302.5 1729.97 302.5H1734.52C1735.78 302.5 1736.8 303.521 1736.8 304.781V305.523C1737.84 305.836 1738.83 306.246 1739.77 306.756L1740.29 306.233C1741.18 305.342 1742.62 305.342 1743.51 306.233L1746.73 309.458C1747.62 310.349 1747.62 311.793 1746.73 312.684L1746.21 313.208C1746.72 314.156 1747.13 315.154 1747.44 316.186H1748.17C1749.43 316.186 1750.45 317.207 1750.45 318.467V323.03C1750.45 324.29 1749.43 325.311 1748.17 325.311H1747.44C1747.12 326.356 1746.71 327.347 1746.21 328.29L1746.73 328.813C1747.62 329.704 1747.62 331.148 1746.73 332.039L1743.51 335.266C1742.62 336.157 1741.18 336.157 1740.29 335.266L1739.77 334.743C1738.83 335.252 1737.84 335.662 1736.8 335.976V336.717C1736.8 337.978 1735.78 338.999 1734.52 338.999H1729.97C1728.72 338.999 1727.7 337.978 1727.7 336.717V335.976C1726.66 335.662 1725.67 335.253 1724.73 334.743L1724.21 335.266C1723.32 336.157 1721.88 336.157 1720.99 335.266L1717.77 332.039C1716.88 331.148 1716.88 329.704 1717.77 328.813L1718.29 328.29C1717.78 327.341 1717.37 326.343 1717.06 325.311H1716.32C1715.07 325.311 1714.05 324.29 1714.05 323.03V318.467C1714.05 317.208 1715.07 316.188 1716.32 316.188ZM1732.25 327.594C1736.02 327.594 1739.07 324.53 1739.07 320.75C1739.07 316.97 1736.02 313.906 1732.25 313.906C1728.48 313.906 1725.42 316.97 1725.42 320.75C1725.42 324.53 1728.48 327.594 1732.25 327.594Z" fill="#063706"/>
<g clip-path="url(#clip12)">
<path d="M252 111.563C252 115.474 250.441 119.226 247.665 121.992C244.89 124.758 241.125 126.313 237.2 126.313H194.65C190.717 126.318 186.908 124.934 183.9 122.408C180.892 119.882 178.878 116.376 178.216 112.512C177.554 108.648 178.286 104.675 180.283 101.297C182.279 97.919 185.411 95.3547 189.123 94.0584C189.112 93.7473 189.1 93.4361 189.1 93.125C189.099 89.0632 190.444 85.1149 192.926 81.8931C195.408 78.6713 198.888 76.3565 202.825 75.3081C206.763 74.2597 210.937 74.5365 214.701 76.0955C218.464 77.6544 221.606 80.4083 223.637 83.9293C225.308 82.8155 227.251 82.1749 229.258 82.0761C231.266 81.9772 233.263 82.4238 235.036 83.3681C236.808 84.3124 238.29 85.7189 239.323 87.4374C240.356 89.1559 240.901 91.1218 240.9 93.125C240.9 94.488 240.649 95.8394 240.16 97.1121C243.502 97.792 246.506 99.6016 248.664 102.235C250.821 104.868 252 108.163 252 111.563Z" fill="#097609"/>
</g>
<g clip-path="url(#clip13)">
<path d="M1425 157.563C1425 161.474 1423.44 165.226 1420.67 167.992C1417.89 170.758 1414.13 172.313 1410.2 172.313H1367.65C1363.72 172.318 1359.91 170.934 1356.9 168.408C1353.89 165.882 1351.88 162.376 1351.22 158.512C1350.55 154.648 1351.29 150.675 1353.28 147.297C1355.28 143.919 1358.41 141.355 1362.12 140.058C1362.11 139.747 1362.1 139.436 1362.1 139.125C1362.1 135.063 1363.44 131.115 1365.93 127.893C1368.41 124.671 1371.89 122.356 1375.83 121.308C1379.76 120.26 1383.94 120.537 1387.7 122.095C1391.46 123.654 1394.61 126.408 1396.64 129.929C1398.31 128.815 1400.25 128.175 1402.26 128.076C1404.27 127.977 1406.26 128.424 1408.04 129.368C1409.81 130.312 1411.29 131.719 1412.32 133.437C1413.36 135.156 1413.9 137.122 1413.9 139.125C1413.9 140.488 1413.65 141.839 1413.16 143.112C1416.5 143.792 1419.51 145.602 1421.66 148.235C1423.82 150.868 1425 154.163 1425 157.563Z" fill="#097609"/>
</g>
<g clip-path="url(#clip14)">
<path d="M532 40.5625C532 44.4744 530.441 48.2262 527.665 50.9923C524.89 53.7585 521.125 55.3125 517.2 55.3125H474.65C470.717 55.3176 466.908 53.9345 463.9 51.4084C460.892 48.8824 458.878 45.3765 458.216 41.5121C457.554 37.6478 458.286 33.6746 460.283 30.2968C462.279 26.919 465.411 24.3547 469.123 23.0584C469.112 22.7473 469.1 22.4361 469.1 22.125C469.099 18.0632 470.444 14.1149 472.926 10.8931C475.408 7.67129 478.888 5.35646 482.825 4.30809C486.763 3.25973 490.937 3.53652 494.701 5.09546C498.464 6.65441 501.606 9.40826 503.637 12.9293C505.308 11.8155 507.251 11.1749 509.258 11.0761C511.266 10.9772 513.263 11.4238 515.036 12.3681C516.808 13.3124 518.29 14.7189 519.323 16.4374C520.356 18.1559 520.901 20.1218 520.9 22.125C520.9 23.488 520.649 24.8394 520.16 26.1121C523.502 26.792 526.506 28.6016 528.664 31.2348C530.821 33.8679 532 37.163 532 40.5625Z" fill="#70AF1A"/>
</g>
<g clip-path="url(#clip15)">
<path d="M1622 41.5625C1622 45.4744 1620.44 49.2262 1617.67 51.9923C1614.89 54.7585 1611.13 56.3125 1607.2 56.3125H1564.65C1560.72 56.3176 1556.91 54.9345 1553.9 52.4084C1550.89 49.8824 1548.88 46.3765 1548.22 42.5121C1547.55 38.6478 1548.29 34.6746 1550.28 31.2968C1552.28 27.919 1555.41 25.3547 1559.12 24.0584C1559.11 23.7473 1559.1 23.4361 1559.1 23.125C1559.1 19.0632 1560.44 15.1149 1562.93 11.8931C1565.41 8.67129 1568.89 6.35646 1572.83 5.30809C1576.76 4.25973 1580.94 4.53652 1584.7 6.09546C1588.46 7.65441 1591.61 10.4083 1593.64 13.9293C1595.31 12.8155 1597.25 12.1749 1599.26 12.0761C1601.27 11.9772 1603.26 12.4238 1605.04 13.3681C1606.81 14.3124 1608.29 15.7189 1609.32 17.4374C1610.36 19.1559 1610.9 21.1218 1610.9 23.125C1610.9 24.488 1610.65 25.8394 1610.16 27.1121C1613.5 27.792 1616.51 29.6016 1618.66 32.2348C1620.82 34.8679 1622 38.163 1622 41.5625Z" fill="#70AF1A"/>
</g>
<g clip-path="url(#clip16)">
<path d="M1784 96.5625C1784 100.474 1782.44 104.226 1779.67 106.992C1776.89 109.758 1773.13 111.313 1769.2 111.313H1726.65C1722.72 111.318 1718.91 109.934 1715.9 107.408C1712.89 104.882 1710.88 101.376 1710.22 97.5121C1709.55 93.6478 1710.29 89.6746 1712.28 86.2968C1714.28 82.919 1717.41 80.3547 1721.12 79.0584C1721.11 78.7473 1721.1 78.4361 1721.1 78.125C1721.1 74.0632 1722.44 70.1149 1724.93 66.8931C1727.41 63.6713 1730.89 61.3565 1734.83 60.3081C1738.76 59.2597 1742.94 59.5365 1746.7 61.0955C1750.46 62.6544 1753.61 65.4083 1755.64 68.9293C1757.31 67.8155 1759.25 67.1749 1761.26 67.0761C1763.27 66.9772 1765.26 67.4238 1767.04 68.3681C1768.81 69.3124 1770.29 70.7189 1771.32 72.4374C1772.36 74.1559 1772.9 76.1218 1772.9 78.125C1772.9 79.488 1772.65 80.8394 1772.16 82.1121C1775.5 82.792 1778.51 84.6016 1780.66 87.2348C1782.82 89.8679 1784 93.163 1784 96.5625Z" fill="#70AF1A"/>
</g>
<g clip-path="url(#clip17)">
<path d="M92.2378 327.213L73.3958 305.562H80.9494C86.3208 305.562 89.2373 299.46 85.8172 295.427L65.9052 272.125H75.3052C79.7744 272.125 82.2083 267.423 79.3547 264.33L51.0498 233.713C48.9516 231.435 45.0489 231.435 42.9507 233.713L14.6668 264.33C11.8132 267.423 14.2471 272.125 18.7163 272.125H28.1163L8.18329 295.427C4.7632 299.46 7.67972 305.562 13.0512 305.562H20.6047L1.76276 327.213C-2.22385 331.79 0.965436 339 6.94535 339H87.0342C93.0351 339 96.2034 331.769 92.2378 327.213Z" fill="#097609"/>
</g>
<g clip-path="url(#clip18)">
<path d="M150.312 327.764L132.272 307.125H139.504C144.647 307.125 147.44 301.308 144.165 297.463L125.1 275.25H134.1C138.379 275.25 140.71 270.768 137.978 267.819L110.877 238.634C108.868 236.462 105.132 236.462 103.123 238.634L76.0424 267.819C73.3102 270.768 75.6406 275.25 79.9196 275.25H88.9196L69.8348 297.463C66.5602 301.308 69.3526 307.125 74.4955 307.125H81.7276L63.6875 327.764C59.8705 332.127 62.9241 339 68.6495 339H145.33C151.076 339 154.109 332.107 150.312 327.764Z" fill="#70AF1A"/>
</g>
<g clip-path="url(#clip19)">
<path d="M124.238 327.213L105.396 305.562H112.949C118.321 305.562 121.237 299.46 117.817 295.427L97.9052 272.125H107.305C111.774 272.125 114.208 267.423 111.355 264.33L83.0498 233.713C80.9516 231.435 77.0489 231.435 74.9507 233.713L46.6668 264.33C43.8132 267.423 46.2471 272.125 50.7163 272.125H60.1163L40.1833 295.427C36.7632 299.46 39.6797 305.562 45.0512 305.562H52.6047L33.7628 327.213C29.7761 331.79 32.9654 339 38.9453 339H119.034C125.035 339 128.203 331.769 124.238 327.213Z" fill="#097609"/>
</g>
<g clip-path="url(#clip20)">
<path d="M1458.24 327.213L1439.4 305.562H1446.95C1452.32 305.562 1455.24 299.46 1451.82 295.427L1431.91 272.125H1441.31C1445.77 272.125 1448.21 267.423 1445.35 264.33L1417.05 233.713C1414.95 231.435 1411.05 231.435 1408.95 233.713L1380.67 264.33C1377.81 267.423 1380.25 272.125 1384.72 272.125H1394.12L1374.18 295.427C1370.76 299.46 1373.68 305.562 1379.05 305.562H1386.6L1367.76 327.213C1363.78 331.79 1366.97 339 1372.95 339H1453.03C1459.04 339 1462.2 331.769 1458.24 327.213Z" fill="#70AF1A"/>
</g>
<g clip-path="url(#clip21)">
<path d="M1483.37 328.095L1465.93 308.063H1472.92C1477.89 308.063 1480.59 302.417 1477.43 298.685L1459 277.125H1467.7C1471.83 277.125 1474.09 272.775 1471.44 269.913L1445.25 241.586C1443.31 239.478 1439.69 239.478 1437.75 241.586L1411.57 269.913C1408.93 272.775 1411.19 277.125 1415.32 277.125H1424.02L1405.57 298.685C1402.41 302.417 1405.11 308.063 1410.08 308.063H1417.07L1399.63 328.095C1395.94 332.329 1398.89 339 1404.43 339H1478.55C1484.11 339 1487.04 332.31 1483.37 328.095Z" fill="#097609"/>
</g>
<g clip-path="url(#clip22)">
<path d="M339.238 327.213L320.396 305.562H327.949C333.321 305.562 336.237 299.46 332.817 295.427L312.905 272.125H322.305C326.774 272.125 329.208 267.423 326.355 264.33L298.05 233.713C295.952 231.435 292.049 231.435 289.951 233.713L261.667 264.33C258.813 267.423 261.247 272.125 265.716 272.125H275.116L255.183 295.427C251.763 299.46 254.68 305.562 260.051 305.562H267.605L248.763 327.213C244.776 331.79 247.965 339 253.945 339H334.034C340.035 339 343.203 331.769 339.238 327.213Z" fill="#097609"/>
</g>
<g clip-path="url(#clip23)">
<path d="M297.425 328.425L280.587 309H287.337C292.137 309 294.743 303.525 291.687 299.907L273.893 279H282.293C286.287 279 288.462 274.782 285.912 272.007L260.618 244.538C258.743 242.494 255.256 242.494 253.381 244.538L228.106 272.007C225.556 274.782 227.731 279 231.725 279H240.125L222.312 299.907C219.256 303.525 221.862 309 226.662 309H233.412L216.575 328.425C213.012 332.532 215.862 339 221.206 339H292.775C298.137 339 300.968 332.513 297.425 328.425Z" fill="#063706"/>
</g>
<g clip-path="url(#clip24)">
<path d="M1267 250.605L1218.44 293.513C1218.08 293.838 1217.62 293.99 1217.22 294.259V335.437C1217.22 336.382 1217.6 337.288 1218.26 337.956C1218.93 338.624 1219.83 339 1220.78 339H1249.22C1250.16 339 1251.07 338.624 1251.74 337.956C1252.4 337.288 1252.78 336.382 1252.78 335.437V306.937C1252.78 305.992 1253.15 305.086 1253.82 304.418C1254.49 303.75 1255.39 303.375 1256.33 303.375H1277.67C1278.61 303.375 1279.51 303.75 1280.18 304.418C1280.85 305.086 1281.22 305.992 1281.22 306.937V335.437C1281.22 336.382 1281.6 337.288 1282.26 337.956C1282.93 338.624 1283.83 339 1284.78 339H1313.22C1314.16 339 1315.07 338.624 1315.74 337.956C1316.4 337.288 1316.78 336.382 1316.78 335.437V294.268C1316.4 294.01 1315.95 293.863 1315.61 293.555L1267 250.605ZM1329.82 277.609L1272.94 227.288C1271.32 225.814 1269.2 224.997 1267.01 224.997C1264.81 224.997 1262.69 225.814 1261.07 227.288L1204.18 277.609C1203.83 277.921 1203.55 278.3 1203.35 278.722C1203.14 279.144 1203.03 279.602 1203 280.069C1202.98 280.536 1203.04 281.004 1203.2 281.445C1203.36 281.886 1203.6 282.293 1203.91 282.641L1208.67 287.944C1208.98 288.293 1209.36 288.576 1209.78 288.778C1210.2 288.98 1210.66 289.097 1211.12 289.122C1211.59 289.147 1212.05 289.079 1212.5 288.924C1212.94 288.768 1213.34 288.527 1213.69 288.214L1264.65 243.175C1265.3 242.601 1266.13 242.284 1267 242.284C1267.87 242.284 1268.7 242.601 1269.35 243.175L1320.31 288.212C1320.66 288.524 1321.07 288.766 1321.51 288.921C1321.95 289.077 1322.41 289.144 1322.88 289.119C1323.35 289.094 1323.8 288.978 1324.22 288.776C1324.65 288.574 1325.02 288.29 1325.34 287.942L1330.09 282.639C1330.72 281.935 1331.05 281.011 1330.99 280.067C1330.94 279.124 1330.52 278.24 1329.82 277.609Z" fill="#097609"/>
</g>
<path d="M1168.5 308.333C1170.32 308.321 1172.05 308.609 1173.67 309.16L1177.67 302.583H1167.63C1166.01 302.583 1164.71 301.301 1164.71 299.708V295.875C1164.71 294.282 1166.01 293 1167.63 293H1173.15C1173.98 293 1174.77 293.347 1175.32 293.946L1179.89 298.942L1182.67 294.39C1183.21 293.527 1184.16 293 1185.18 293H1194.93C1196 293 1196.88 293.862 1196.88 294.917V296.833C1196.88 297.887 1196 298.75 1194.93 298.75H1186.84L1184.5 302.583H1203.23C1205.38 299.816 1208.7 297.792 1215.4 297.792H1222.16C1223.81 297.792 1225.18 299.109 1225.15 300.726C1225.12 302.284 1223.82 303.541 1222.22 303.541H1215.4C1212.41 303.541 1210.68 304.847 1209.58 306.512L1210.95 308.968C1212.54 308.501 1214.23 308.285 1215.98 308.345C1224.18 308.633 1230.8 315.233 1231 323.307C1231.19 331.944 1224.14 338.999 1215.4 338.999C1208.14 338.999 1202.03 334.112 1200.29 327.499H1190.03C1188.36 327.499 1187.03 326.134 1187.11 324.493C1187.36 318.851 1184.97 313.268 1180.26 309.519L1178.74 312.011C1182.1 314.85 1184.23 319.066 1184.19 323.774C1184.13 332.111 1177.22 338.927 1168.74 338.999C1160.02 339.083 1152.93 332.111 1153 323.534C1153.09 315.197 1160.02 308.393 1168.5 308.333ZM1215.4 333.249C1220.77 333.249 1225.15 328.949 1225.15 323.666C1225.15 318.383 1220.77 314.083 1215.4 314.083C1214.89 314.083 1214.38 314.119 1213.88 314.203L1218.93 323.235C1220.01 325.152 1218.59 327.499 1216.37 327.499H1206.47C1207.98 330.878 1211.41 333.249 1215.4 333.249ZM1158.87 324.193C1159.14 329.057 1163.14 332.986 1168.07 333.237C1173.69 333.537 1178.36 329.129 1178.36 323.666C1178.36 321.103 1177.33 318.779 1175.66 317.066L1169.65 326.936C1169.1 327.847 1167.89 328.134 1166.96 327.595L1165.3 326.613C1164.37 326.074 1164.08 324.888 1164.62 323.978L1170.55 314.287C1169.91 314.155 1169.27 314.095 1168.61 314.095C1163.05 314.083 1158.58 318.671 1158.87 324.193Z" fill="#063706"/>
<defs>
<clipPath id="clip0">
<rect width="28" height="94" transform="matrix(-1 0 0 1 1052 245)" fill="white"/>
</clipPath>
<clipPath id="clip1">
<rect x="628" y="232" width="94" height="107" fill="white"/>
</clipPath>
<clipPath id="clip2">
<rect x="1008" y="318" width="21" height="21" fill="white"/>
</clipPath>
<clipPath id="clip3">
<rect x="981" y="318" width="21" height="21" fill="white"/>
</clipPath>
<clipPath id="clip4">
<rect x="1527" y="318" width="21" height="21" fill="white"/>
</clipPath>
<clipPath id="clip5">
<rect x="1500" y="318" width="21" height="21" fill="white"/>
</clipPath>
<clipPath id="clip6">
<rect x="1581" y="318" width="21" height="21" fill="white"/>
</clipPath>
<clipPath id="clip7">
<rect x="1554" y="318" width="21" height="21" fill="white"/>
</clipPath>
<clipPath id="clip8">
<rect x="1048" y="318" width="21" height="21" fill="white"/>
</clipPath>
<clipPath id="clip9">
<rect x="1760" y="147" width="240" height="192" fill="white"/>
</clipPath>
<clipPath id="clip10">
<rect x="1729" y="232" width="94" height="107" fill="white"/>
</clipPath>
<clipPath id="clip11">
<rect x="301" y="147" width="240" height="192" fill="white"/>
</clipPath>
<clipPath id="clip12">
<rect x="178" y="71" width="74" height="59" fill="white"/>
</clipPath>
<clipPath id="clip13">
<rect x="1351" y="117" width="74" height="59" fill="white"/>
</clipPath>
<clipPath id="clip14">
<rect x="458" width="74" height="59" fill="white"/>
</clipPath>
<clipPath id="clip15">
<rect x="1548" y="1" width="74" height="59" fill="white"/>
</clipPath>
<clipPath id="clip16">
<rect x="1710" y="56" width="74" height="59" fill="white"/>
</clipPath>
<clipPath id="clip17">
<rect y="232" width="94" height="107" fill="white"/>
</clipPath>
<clipPath id="clip18">
<rect x="62" y="237" width="90" height="102" fill="white"/>
</clipPath>
<clipPath id="clip19">
<rect x="32" y="232" width="94" height="107" fill="white"/>
</clipPath>
<clipPath id="clip20">
<rect x="1366" y="232" width="94" height="107" fill="white"/>
</clipPath>
<clipPath id="clip21">
<rect x="1398" y="240" width="87" height="99" fill="white"/>
</clipPath>
<clipPath id="clip22">
<rect x="247" y="232" width="94" height="107" fill="white"/>
</clipPath>
<clipPath id="clip23">
<rect x="215" y="243" width="84" height="96" fill="white"/>
</clipPath>
<clipPath id="clip24">
<rect x="1203" y="225" width="128" height="114" fill="white"/>
</clipPath>
</defs>
</svg>
