<svg width="96" height="96" viewBox="0 0 96 96" fill="none" xmlns="http://www.w3.org/2000/svg">
<path fill-rule="evenodd" clip-rule="evenodd" d="M12 0C5.37258 0 0 5.37258 0 12V84C0 90.6274 5.37258 96 12 96H84C90.6274 96 96 90.6274 96 84V12C96 5.37258 90.6274 0 84 0H12ZM32.127 82.5C32.127 82.8333 32.2603 83 32.527 83H64.827C65.1603 83 65.327 82.8333 65.327 82.5V71.2C65.327 70.8667 65.1603 70.7 64.827 70.7H44.227L44.327 13.9C44.327 13.5667 44.1603 13.4 43.827 13.4H32.727C32.3936 13.4 32.227 13.5667 32.227 13.9L32.127 82.5Z" fill="#004589"/>
</svg>
